<?xml version="1.0" standalone="no"?>
<!DOCTYPE svg PUBLIC "-//W3C//DTD SVG 20010904//EN"
 "http://www.w3.org/TR/2001/REC-SVG-20010904/DTD/svg10.dtd">
<svg version="1.0" xmlns="http://www.w3.org/2000/svg"
 width="1000.000000pt" height="1000.000000pt" viewBox="0 0 1000.000000 1000.000000"
 preserveAspectRatio="xMidYMid meet">
<metadata>
Created by potrace 1.14, written by Peter Selinger 2001-2017
</metadata>
<g transform="translate(0.000000,1000.000000) scale(0.100000,-0.100000)"
fill="#000000" stroke="none">
<path d="M0 5000 l0 -5000 1305 0 1305 0 0 29 c0 17 11 76 25 133 14 57 26
128 26 158 1 30 5 69 9 85 l8 30 1 -30 c1 -25 5 -30 28 -32 18 -1 38 -14 58
-37 16 -20 35 -36 40 -36 6 0 18 -14 27 -31 11 -18 22 -27 29 -23 8 5 7 9 -4
15 -14 8 -32 54 -29 72 1 4 -2 7 -8 7 -5 0 -10 7 -10 15 0 8 -4 15 -10 15 -5
0 -10 14 -10 30 0 21 -5 30 -16 30 -8 0 -12 5 -9 10 4 6 -1 22 -10 36 -9 14
-14 28 -11 31 3 4 1 12 -6 20 -6 8 -10 44 -10 83 1 42 -3 70 -9 70 -5 0 -9 6
-8 12 1 7 -1 21 -6 31 -9 21 18 87 35 87 5 0 10 9 10 20 0 14 6 19 23 19 12
-1 31 2 42 7 18 7 19 6 5 -11 -10 -12 -10 -16 -2 -11 7 4 19 2 27 -4 10 -8 15
-9 15 -2 0 6 9 10 19 9 11 0 18 -5 15 -9 -3 -4 9 -14 25 -23 17 -8 42 -27 55
-42 14 -15 27 -25 29 -23 5 6 -12 31 -118 180 -92 128 -166 274 -199 395 -26
94 -46 328 -46 526 0 83 4 100 28 143 48 88 56 76 47 -70 -11 -179 -11 -246 0
-269 7 -14 11 12 15 92 3 61 8 114 12 118 11 11 49 -5 43 -18 -3 -7 2 -2 11
11 18 24 46 29 61 10 5 -7 22 -47 38 -88 15 -41 43 -106 60 -145 18 -38 36
-86 40 -105 3 -19 10 -44 15 -55 12 -29 35 -119 32 -128 -1 -4 2 -6 7 -5 5 2
9 -1 9 -5 1 -5 10 -17 21 -26 12 -10 21 -26 21 -35 0 -9 5 -16 11 -16 6 0 9
-6 6 -14 -4 -9 0 -12 12 -9 14 4 18 -1 16 -25 -1 -20 2 -28 10 -26 16 7 19 96
3 106 -9 5 -9 8 -1 8 6 0 9 8 6 19 -4 16 -10 18 -34 11 -25 -7 -30 -5 -42 19
-8 15 -20 55 -27 89 -8 34 -18 62 -23 62 -5 0 -7 6 -4 14 3 7 -1 26 -10 42
-20 40 -50 122 -58 164 -4 19 -11 41 -15 50 -93 187 -166 437 -187 639 -4 42
-3 52 7 46 8 -5 11 -3 8 6 -3 8 5 43 18 79 12 36 25 85 29 110 4 25 19 70 34
100 15 30 36 82 45 115 37 120 95 221 115 199 12 -12 23 -107 26 -224 2 -96
14 -145 36 -152 8 -3 11 -29 10 -83 l-1 -79 26 40 c26 37 26 42 21 144 -3 58
-15 152 -27 210 -80 409 -72 590 36 851 47 113 74 105 74 -23 0 -21 4 -37 9
-34 11 7 21 -167 21 -356 0 -138 9 -212 30 -263 5 -11 12 -31 16 -44 14 -50
105 -189 186 -283 46 -53 112 -132 148 -176 56 -69 69 -79 90 -75 18 3 32 -3
49 -21 14 -14 35 -26 49 -26 24 0 286 117 477 212 111 56 297 167 395 236 86
61 247 200 312 270 71 78 187 235 230 313 45 80 121 259 136 319 30 122 44
222 39 267 -11 92 -28 198 -34 213 -3 8 -5 18 -5 23 1 4 -3 7 -9 7 -13 0 -5
-149 9 -159 8 -7 10 -15 25 -83 8 -39 5 -64 -13 -138 -13 -51 -31 -99 -40
-108 -16 -16 -29 -43 -31 -67 0 -5 -7 -17 -15 -27 -9 -9 -17 -22 -18 -30 -5
-22 -55 -128 -61 -128 -4 0 -3 6 1 12 4 7 -8 -3 -27 -22 -19 -19 -35 -39 -35
-45 -1 -5 -2 -18 -3 -28 -1 -11 -6 -15 -13 -11 -7 5 -9 2 -5 -9 3 -8 -1 -21
-9 -27 -8 -7 -14 -18 -14 -24 0 -6 -15 -27 -34 -46 -18 -20 -37 -46 -40 -58
-4 -12 -20 -37 -36 -54 -16 -17 -26 -36 -23 -41 3 -6 1 -7 -5 -3 -11 7 -17 2
-53 -46 -11 -15 -23 -27 -27 -25 -4 1 -7 0 -8 -3 -2 -12 -92 -97 -116 -109
-16 -8 -28 -20 -28 -27 0 -7 -5 -16 -12 -20 -7 -5 -9 -2 -4 7 4 8 1 6 -7 -3
-8 -10 -19 -18 -26 -18 -6 0 -10 -6 -9 -12 2 -7 -4 -13 -12 -13 -20 -1 -70
-45 -70 -63 0 -8 -6 -12 -15 -8 -18 7 -75 -13 -75 -26 0 -6 -9 -8 -21 -5 -16
4 -18 3 -8 -9 9 -11 8 -14 -7 -15 -11 -1 -23 -1 -27 0 -4 1 -19 -10 -34 -23
-22 -20 -28 -22 -40 -11 -18 18 -16 25 5 25 24 0 64 29 42 30 -9 0 -21 -5 -28
-12 -9 -9 -12 -8 -12 6 0 12 -5 16 -16 12 -11 -4 -18 1 -21 15 -3 12 -11 18
-19 15 -24 -9 -15 10 11 24 29 16 33 35 8 38 -59 7 -70 9 -81 16 -17 10 -15
26 3 20 11 -5 15 0 14 17 0 13 -3 18 -6 12 -2 -7 -11 -13 -19 -13 -8 0 -14 -4
-14 -10 0 -5 -7 -10 -15 -10 -8 0 -15 -4 -15 -10 0 -5 -7 -7 -15 -4 -8 4 -25
-6 -39 -23 -19 -21 -28 -25 -34 -15 -7 10 -15 10 -43 -2 -19 -9 -28 -15 -21
-16 10 0 10 -3 0 -13 -10 -12 -15 -12 -26 0 -15 15 -26 17 -17 4 3 -6 -10 -13
-29 -16 -19 -4 -37 -13 -40 -21 -3 -8 -15 -14 -26 -14 -12 0 -20 -7 -20 -17 0
-15 2 -16 10 -3 8 12 10 10 10 -8 0 -16 4 -21 12 -16 9 6 9 3 -1 -9 -7 -9 -11
-24 -7 -32 3 -9 0 -15 -8 -15 -15 0 -29 27 -21 40 3 5 1 11 -5 15 -5 3 -10 2
-10 -4 0 -6 -7 -8 -15 -5 -11 5 -13 2 -9 -10 3 -9 10 -16 14 -16 4 0 10 -6 13
-14 4 -10 0 -12 -14 -9 -10 3 -26 2 -35 -1 -16 -6 -16 -8 0 -24 19 -22 21 -52
4 -52 -7 0 -19 -4 -27 -9 -13 -8 -13 -12 0 -27 10 -13 11 -18 2 -21 -17 -6 6
-43 27 -43 13 0 13 -2 1 -9 -9 -6 -23 -5 -35 1 -19 10 -19 9 -8 -4 16 -20 7
-26 -41 -26 -33 0 -36 2 -21 12 11 9 13 15 6 20 -6 3 -18 -1 -26 -10 -9 -8
-16 -12 -16 -7 0 5 5 14 11 20 6 6 8 17 4 23 -6 9 -9 9 -16 -1 -11 -18 -21 -6
-23 26 -1 22 -4 25 -28 19 -17 -3 -28 -1 -28 5 0 6 -6 11 -12 11 -23 1 -49 48
-69 128 -12 42 -22 86 -24 97 -1 11 -10 49 -19 84 -10 35 -16 73 -15 85 1 11
-1 28 -4 36 -16 44 -27 120 -42 295 -2 22 -6 53 -10 69 -5 17 -4 27 1 23 5 -3
9 35 10 86 0 51 2 103 4 117 2 14 0 41 -4 60 -5 26 -4 31 3 20 9 -13 11 -13
11 2 0 9 -4 19 -10 23 -5 3 -7 12 -3 20 3 11 1 13 -10 10 -8 -4 -17 1 -21 10
-3 9 -12 13 -18 10 -7 -4 -5 0 5 8 21 17 22 31 2 23 -8 -3 -15 -1 -15 3 0 5
-2 15 -5 23 -3 7 -1 20 4 28 8 12 13 11 32 -5 19 -17 22 -18 16 -3 -3 10 -2
20 3 23 6 4 10 12 9 18 0 8 -2 8 -6 -1 -4 -10 -8 -9 -19 5 -17 22 -19 57 -2
47 8 -5 9 -2 5 9 -5 13 -1 16 18 15 13 -1 21 -6 18 -11 -7 -12 17 -67 30 -67
6 0 2 -7 -9 -16 -10 -8 -14 -13 -8 -10 14 7 26 -18 18 -39 -5 -11 -2 -13 10
-9 9 3 16 1 16 -5 0 -6 3 -10 7 -10 22 4 32 -4 42 -32 14 -40 14 -48 0 -29 -9
12 -10 12 -5 -3 3 -10 6 -24 7 -30 0 -7 5 -1 10 13 8 18 12 21 18 11 7 -11 9
-11 14 0 5 12 7 12 15 0 11 -15 24 -1 19 21 -2 7 -2 10 0 6 2 -3 15 5 28 18
13 13 30 24 37 23 10 0 10 -2 1 -6 -9 -3 -10 -10 -3 -24 6 -11 7 -19 1 -19 -5
0 -12 8 -16 18 -5 14 -9 12 -19 -12 -17 -42 -13 -159 8 -190 9 -14 16 -32 16
-41 0 -13 21 -15 71 -6 10 2 -2 51 -12 51 -5 0 -9 5 -9 11 0 6 7 8 16 5 12 -4
14 -1 9 14 -4 12 -2 19 3 18 16 -5 62 55 62 80 0 20 4 22 34 19 23 -3 33 0 30
7 -3 7 5 12 16 13 11 1 35 14 52 28 18 15 43 31 57 37 25 9 25 11 6 18 -11 4
-41 26 -67 49 -25 22 -51 41 -57 41 -6 0 -10 3 -10 7 4 27 -3 43 -21 43 -11 0
-20 6 -20 14 0 15 -37 55 -66 72 -10 6 -18 21 -18 33 1 16 -3 21 -13 17 -11
-5 -14 1 -10 22 2 15 2 21 0 15 -3 -7 -9 -13 -14 -13 -6 0 -7 5 -3 12 5 8 2 9
-10 5 -14 -5 -17 -3 -12 8 6 17 -9 21 -19 5 -3 -5 -12 -10 -18 -10 -7 0 -6 4
3 10 12 8 11 10 -7 10 -14 0 -23 6 -23 15 0 8 -7 15 -16 15 -8 0 -13 -3 -11
-7 3 -5 -2 -14 -10 -22 -12 -11 -15 -10 -20 7 -3 11 -11 23 -19 26 -16 6 -28
-9 -19 -24 3 -5 2 -10 -4 -10 -10 0 -27 39 -23 53 1 5 -2 6 -8 2 -5 -3 -10 -2
-10 4 0 5 5 13 10 16 6 4 7 11 4 17 -8 13 -28 -29 -25 -51 2 -12 0 -13 -12 -3
-18 15 -29 52 -15 52 5 0 6 5 2 12 -5 8 -11 5 -17 -10 -15 -33 -34 -26 -28 11
0 4 -8 7 -19 7 -10 0 -25 10 -31 22 -7 13 -23 31 -36 41 -12 10 -23 28 -23 39
0 14 -5 18 -15 14 -10 -4 -15 1 -15 15 0 12 -8 23 -19 26 -12 3 -17 11 -14 19
5 14 -21 47 -30 38 -6 -6 -28 56 -23 65 5 7 -22 47 -29 44 -15 -8 -23 2 -32
42 -7 31 -7 47 1 55 6 7 7 11 1 10 -24 -5 -35 1 -35 19 0 11 5 23 10 26 6 3
10 12 10 18 0 9 -2 9 -8 0 -4 -7 -13 -9 -21 -4 -11 7 -10 10 3 18 13 7 15 14
7 34 -9 21 -10 22 -11 4 -1 -11 -4 -15 -6 -8 -3 7 0 22 6 34 8 15 9 19 1 15
-6 -4 -12 0 -12 11 -1 10 -3 33 -5 50 -2 28 0 31 11 19 8 -7 11 -23 8 -35 -3
-11 -1 -21 4 -21 6 0 9 20 8 45 -1 24 2 42 7 39 4 -3 8 -1 8 5 0 5 -5 13 -11
17 -6 3 -9 21 -7 39 2 19 0 31 -4 29 -11 -7 -10 4 2 27 8 14 7 19 -1 19 -8 0
-10 12 -6 35 3 19 1 37 -4 40 -5 4 -6 18 -3 32 5 17 3 24 -4 19 -7 -4 -8 2 -2
22 11 40 2 82 -16 75 -8 -3 -14 1 -14 10 0 8 12 18 26 21 21 6 24 10 14 21 -6
8 -9 19 -5 25 3 5 1 10 -4 10 -20 0 -11 37 12 47 17 8 22 19 24 54 0 24 3 53
5 63 1 10 -3 21 -10 23 -8 3 -10 -2 -6 -14 5 -17 5 -17 -9 0 -15 18 -43 24
-32 7 3 -5 1 -18 -5 -27 -11 -16 -11 -16 -6 -1 6 20 -10 34 -18 16 -3 -7 -3
-2 0 11 4 16 3 21 -5 17 -6 -4 -11 -2 -11 4 0 6 -3 9 -7 7 -5 -3 -8 5 -9 16
-1 12 -4 39 -7 60 -3 21 -1 37 4 37 6 0 7 9 4 20 -4 12 -1 27 5 35 16 20 3 19
-17 0 -23 -23 -25 -13 -9 33 9 23 13 42 9 42 -3 0 2 11 11 25 18 28 13 50 -10
41 -8 -3 -14 -1 -14 4 0 6 5 10 10 10 18 0 10 50 -12 72 -14 14 -17 23 -10 26
9 3 9 9 1 23 -5 11 -7 24 -4 29 3 6 2 10 -4 10 -6 0 -8 6 -5 14 3 8 1 17 -5
21 -6 3 -8 17 -5 32 5 17 3 24 -4 19 -7 -4 -9 7 -7 31 2 21 -4 53 -12 71 -14
30 -14 34 4 50 26 23 50 63 48 82 -1 8 9 29 21 46 12 17 30 57 39 88 9 32 26
65 38 74 11 10 36 32 55 50 19 17 39 33 44 33 12 2 21 5 38 12 51 21 102 27
145 17 25 -6 50 -8 55 -5 10 6 126 -10 154 -21 14 -5 17 -4 11 5 -6 10 -2 11
16 6 22 -7 23 -7 9 10 -14 17 -13 17 10 10 14 -4 29 -11 35 -16 15 -14 28 -10
21 6 -4 11 1 15 19 15 13 0 27 -5 30 -10 3 -6 18 -8 32 -6 14 3 37 -2 52 -12
25 -16 26 -16 11 3 -8 11 -21 26 -28 33 -13 14 -8 32 9 32 6 0 7 -4 4 -10 -3
-6 1 -7 10 -4 23 9 13 28 -16 32 -13 2 -31 6 -39 9 -21 10 -53 13 -152 17 -73
3 -150 11 -218 21 -8 2 -35 6 -60 9 -24 4 -52 13 -60 21 -11 10 -38 15 -73 15
-31 0 -59 5 -62 10 -4 6 -11 8 -16 5 -5 -4 -9 0 -9 8 0 8 -7 20 -15 27 -9 7
-14 19 -11 26 3 9 0 11 -11 7 -10 -4 -14 -2 -10 4 4 6 0 18 -8 26 -8 9 -12 22
-9 30 3 8 -2 17 -11 21 -12 4 -15 13 -10 35 4 17 2 32 -5 36 -8 5 -7 11 2 23
11 14 10 15 -6 9 -15 -6 -17 -4 -11 10 14 33 17 73 7 86 -15 18 -7 112 16 182
l20 60 -22 12 c-11 7 -15 12 -8 13 6 0 12 9 12 20 0 11 6 20 13 20 7 0 19 9
27 20 8 11 21 20 28 20 12 0 12 3 2 16 -8 8 -9 14 -4 13 22 -4 33 3 40 24 4
12 14 29 24 37 9 8 20 24 24 35 6 14 10 16 13 7 3 -9 13 -3 27 17 13 17 26 27
30 23 5 -4 7 0 6 8 -5 34 1 50 18 50 11 0 23 13 31 35 7 19 19 35 27 35 8 0
12 5 9 10 -3 6 1 10 9 10 9 0 16 5 16 11 0 5 4 8 9 5 5 -3 21 14 35 38 27 46
39 54 94 58 17 1 32 7 32 14 0 21 35 53 50 44 15 -10 40 -2 40 12 0 20 55 53
90 53 19 0 41 4 48 8 8 5 12 2 12 -8 0 -12 5 -15 16 -11 9 3 21 3 26 -1 20
-11 89 -6 106 8 30 25 95 10 85 -19 -6 -15 -5 -15 10 -3 11 9 17 10 17 2 0 -6
5 -11 11 -11 6 0 9 7 5 15 -6 16 -5 17 41 21 18 1 42 12 54 23 25 23 64 29 56
9 -3 -9 7 -13 32 -13 21 0 36 -5 37 -12 1 -7 2 -20 3 -28 0 -8 10 -15 20 -15
11 0 22 -4 25 -9 3 -4 16 -6 30 -4 13 3 27 0 30 -6 4 -6 16 -11 27 -11 10 0
19 -4 19 -8 0 -5 14 -7 30 -4 18 2 40 -2 55 -12 13 -9 35 -16 48 -16 12 0 28
-5 34 -11 16 -16 91 -13 156 6 66 19 185 14 244 -10 19 -8 43 -15 52 -15 18 0
66 -42 94 -84 10 -14 26 -26 37 -26 10 0 22 -9 25 -20 5 -15 12 -19 28 -15 15
4 25 0 32 -13 29 -53 58 -90 79 -102 22 -11 35 -32 32 -52 -1 -3 10 -18 23
-32 29 -31 47 -107 22 -99 -12 5 -10 0 5 -18 24 -27 67 -145 59 -160 -3 -5 3
-29 14 -53 17 -40 17 -44 3 -38 -16 6 -16 4 -1 -18 18 -28 33 -104 19 -95 -6
3 -7 -1 -4 -9 3 -9 2 -16 -3 -16 -17 0 -10 -63 9 -82 10 -10 18 -29 18 -43 0
-14 4 -25 9 -25 15 0 34 -61 36 -116 0 -29 4 -56 8 -60 4 -4 7 -20 7 -36 0
-16 4 -27 9 -24 5 3 9 -36 10 -87 2 -113 4 -127 12 -127 3 0 11 -33 18 -72 19
-112 29 -167 46 -243 24 -111 21 -439 -5 -455 -5 -3 -9 -19 -9 -35 0 -17 -2
-52 -5 -80 l-6 -50 14 35 c8 19 15 44 16 55 0 11 10 38 21 60 20 39 20 40 15
8 -4 -25 -2 -31 9 -26 9 3 15 18 15 37 0 18 5 37 10 42 12 12 19 134 7 134 -4
0 -7 8 -6 18 1 9 -1 25 -4 35 -41 107 -40 125 0 87 18 -17 22 -17 27 -4 3 9
12 14 20 11 26 -10 74 120 82 223 3 36 9 69 14 75 14 19 22 55 11 55 -6 0 -11
-8 -11 -17 0 -15 -2 -16 -10 -3 -5 8 -10 30 -10 49 0 29 2 32 15 21 9 -7 19
-10 22 -6 7 7 -9 21 -32 29 -5 2 -2 11 8 21 9 10 17 15 17 11 0 -3 9 -1 21 6
14 7 24 8 31 1 6 -6 17 -8 24 -5 8 3 14 0 14 -7 0 -6 6 -18 14 -25 17 -18 20
-147 5 -247 -10 -68 -62 -199 -95 -238 -7 -8 -22 -69 -33 -135 -22 -130 -47
-221 -86 -308 -25 -57 -45 -80 -45 -53 0 9 -5 16 -11 16 -5 0 -7 5 -4 10 3 6
1 10 -4 10 -6 0 -11 -8 -11 -17 -1 -25 -20 -47 -56 -66 -30 -15 -50 -44 -40
-55 3 -2 17 3 31 12 13 9 41 20 61 24 32 7 41 15 70 69 l32 61 -5 -79 c-5 -65
-3 -83 10 -97 30 -33 40 -78 27 -117 -13 -40 -35 -55 -79 -55 -16 0 -32 -4
-35 -8 -3 -5 9 -6 26 -4 28 4 30 2 25 -17 -3 -11 -2 -21 2 -21 13 0 27 -145
19 -185 -7 -32 -47 -85 -65 -85 -3 0 -18 -11 -35 -25 -16 -14 -36 -25 -44 -25
-8 0 -14 -5 -14 -10 0 -6 -18 -18 -39 -27 -34 -15 -55 -41 -52 -65 1 -7 -52
-163 -83 -246 -9 -23 -37 -85 -62 -137 -53 -109 -55 -98 43 -177 92 -73 208
-210 248 -293 39 -82 95 -300 103 -398 3 -43 0 -83 -8 -108 -11 -31 -11 -50
-1 -91 15 -65 5 -147 -34 -273 -15 -49 -32 -108 -37 -130 -5 -22 -19 -56 -31
-75 -28 -43 -48 -92 -77 -190 -12 -41 -31 -93 -42 -115 -11 -21 -29 -63 -39
-91 -17 -52 -92 -164 -108 -164 -5 0 -51 -71 -102 -158 -51 -86 -104 -173
-118 -192 -15 -19 -31 -44 -38 -55 -50 -84 -98 -159 -108 -169 -16 -16 -52
-94 -66 -146 -7 -25 -23 -62 -36 -82 -12 -21 -31 -59 -41 -85 -11 -26 -29 -64
-41 -83 -11 -19 -35 -64 -52 -100 -46 -100 -64 -135 -69 -140 -3 -3 -14 -23
-25 -45 -11 -22 -24 -43 -28 -46 -5 -3 -8 -9 -7 -13 0 -3 -14 -37 -32 -74 -32
-67 -47 -129 -28 -117 21 13 9 -7 -29 -48 -39 -43 -131 -179 -131 -194 0 -4
-11 -20 -25 -35 -14 -15 -25 -29 -25 -32 0 -5 -128 -187 -156 -221 -16 -20
-174 -336 -174 -349 0 -3 144 -6 319 -6 305 0 319 1 314 18 -2 11 2 34 10 53
18 45 19 55 1 51 -9 -2 -18 6 -21 17 -6 23 -14 26 -29 11 -16 -16 -43 -1 -51
27 -4 20 0 30 18 43 21 16 21 20 9 36 -13 16 -13 17 3 11 9 -3 17 -3 17 1 0 4
11 12 25 18 19 9 28 9 44 -2 24 -17 34 -4 22 28 -8 21 -14 23 -62 21 -44 -1
-56 -6 -75 -30 -22 -28 -22 -28 -43 -9 -25 23 -27 49 -5 67 12 10 19 10 32 1
40 -29 67 -27 42 3 -21 26 -18 99 5 125 17 19 28 21 77 18 47 -3 54 -2 40 8
-16 12 -16 14 3 28 11 8 26 16 34 16 11 0 11 4 -2 18 -10 10 -17 31 -17 45 0
25 2 27 33 22 17 -4 36 -10 42 -16 5 -5 16 -9 25 -9 13 0 13 2 0 11 -13 9 -13
10 0 6 8 -2 14 -12 14 -21 -1 -10 4 -15 15 -14 12 2 17 -6 19 -35 2 -21 -2
-45 -8 -52 -15 -18 -3 -40 13 -26 7 5 23 11 37 13 15 2 26 11 28 23 3 16 1 18
-9 8 -16 -15 -49 -17 -49 -3 0 6 6 10 14 10 27 0 36 24 24 58 -7 18 -16 32
-20 32 -18 0 -4 27 29 54 47 39 93 40 131 3 20 -20 27 -37 27 -67 0 -22 3 -40
7 -40 5 0 8 7 8 15 0 8 4 15 9 15 13 0 71 -71 71 -88 0 -12 3 -12 16 -1 15 12
14 15 -5 27 -24 17 -29 61 -6 63 8 1 20 2 26 3 15 1 31 -42 19 -49 -6 -4 -10
-15 -10 -25 0 -13 6 -18 20 -15 26 5 25 3 -6 -45 -20 -29 -32 -39 -45 -35 -9
3 -20 2 -23 -4 -3 -5 -16 -7 -28 -3 l-22 5 22 -23 c12 -13 22 -29 22 -35 0 -6
9 -11 20 -12 20 -2 20 -1 -2 17 -13 10 -20 22 -16 26 5 4 17 -1 27 -10 19 -17
21 -17 67 28 41 41 46 50 41 79 -3 17 -4 27 -1 21 3 -6 15 -9 28 -7 18 4 26 0
31 -17 8 -26 3 -32 -38 -46 -33 -11 -51 -36 -20 -28 29 7 73 -36 80 -78 5 -32
1 -41 -25 -68 -18 -18 -41 -30 -56 -30 -14 0 -26 -4 -26 -10 0 -5 9 -10 20
-10 18 0 19 -3 10 -20 -6 -11 -8 -20 -5 -20 3 0 1 -10 -6 -21 -10 -20 -9 -21
9 -17 12 3 29 0 38 -6 24 -18 2 -56 -31 -56 -20 0 -25 -5 -25 -25 0 -22 -3
-24 -19 -15 -11 5 -29 10 -40 10 -11 0 -22 9 -26 19 -3 11 -12 24 -20 31 -11
9 -17 6 -29 -18 l-15 -28 55 -28 c30 -15 54 -32 54 -38 0 -6 7 -5 16 3 21 17
44 20 41 6 -1 -9 564 -13 2301 -15 l2302 -2 0 5000 0 5000 -5000 0 -5000 0 0
-5000z m2622 4609 c32 -15 67 -61 74 -98 6 -28 3 -32 -29 -46 -41 -17 -107
-20 -107 -5 0 6 -8 10 -19 10 -11 0 -23 12 -31 30 -11 27 -10 34 11 65 21 30
50 52 71 54 4 1 17 -4 30 -10z m3073 -99 c10 -11 24 -20 30 -20 11 0 21 -19
39 -74 10 -29 -23 -53 -83 -61 -44 -6 -60 -3 -99 16 -26 13 -48 24 -48 24 -1
0 -5 10 -8 22 -6 17 2 32 35 68 35 38 47 45 79 45 24 0 43 -7 55 -20z m-4886
-4 c110 -30 117 -73 41 -233 -27 -58 -50 -110 -50 -117 0 -7 -4 -16 -9 -21 -4
-6 -15 -48 -24 -95 -29 -157 -30 -181 -9 -246 11 -32 27 -84 36 -115 9 -31 24
-66 32 -78 21 -30 30 -131 14 -160 -14 -27 -67 -51 -109 -51 -51 0 -108 28
-121 60 -16 39 -10 75 34 195 37 102 61 246 46 275 -4 8 -11 38 -15 65 -8 56
-30 111 -110 280 -30 64 -55 123 -55 130 0 7 -5 15 -11 17 -7 2 -3 17 11 40
15 26 34 41 63 52 54 19 167 20 236 2z m7744 -89 c40 -17 60 -41 62 -74 1 -29
-34 -49 -95 -54 -51 -3 -120 20 -120 42 0 32 34 77 65 87 42 14 51 14 88 -1z
m-1389 -118 l25 -12 -22 -43 c-11 -24 -29 -46 -38 -49 -9 -3 -30 -17 -45 -31
-47 -40 -53 -44 -66 -44 -22 1 -58 37 -74 75 -13 31 -13 40 -2 57 30 45 165
73 222 47z m-118 -797 c6 -4 22 -23 35 -42 13 -19 37 -52 53 -73 71 -93 -4
-152 -170 -131 -93 11 -124 56 -88 127 50 97 124 149 170 119z m1684 -131 c35
-18 67 -35 70 -39 3 -4 31 -27 63 -51 66 -50 77 -66 77 -111 0 -28 -34 -100
-65 -140 -35 -43 -64 -149 -75 -275 -24 -262 4 -366 137 -508 48 -53 50 -55
35 -79 -18 -30 -95 -59 -222 -84 -169 -33 -448 -4 -510 53 l-22 21 33 37 c64
69 119 150 141 205 20 48 23 73 23 200 -1 207 -29 306 -138 479 -28 44 -42 78
-45 111 l-4 48 54 41 c30 22 60 41 66 41 7 0 12 5 12 10 0 6 9 10 20 10 11 0
20 4 20 8 0 10 53 41 88 53 15 4 61 7 102 6 62 -2 86 -9 140 -36z m-1674
-1163 c74 -15 135 -46 145 -75 7 -18 -2 -38 -45 -100 -56 -84 -107 -176 -126
-233 -18 -52 -24 -246 -10 -300 6 -25 14 -57 17 -72 3 -16 9 -28 13 -28 4 0
11 -12 15 -27 3 -15 24 -63 46 -107 55 -109 50 -137 -28 -173 -46 -21 -70 -25
-144 -25 -103 0 -212 31 -236 68 -13 20 -12 27 6 63 12 22 32 52 46 66 13 15
27 37 31 49 4 11 15 32 25 45 11 13 19 33 19 45 0 12 4 26 9 32 19 19 29 120
21 209 -11 125 -70 279 -124 324 -9 7 -16 20 -16 27 0 8 -4 14 -8 14 -4 0 -25
20 -46 45 l-37 45 27 33 c15 17 41 38 58 46 86 38 234 51 342 29z m-3318 -381
c2 -11 -3 -17 -15 -17 -15 0 -16 2 -3 10 10 6 11 10 3 10 -7 0 -13 5 -13 11 0
17 25 4 28 -14z m-1514 -535 c3 -15 8 -56 11 -92 4 -35 9 -68 11 -72 6 -9 22
-138 17 -138 -1 0 -14 17 -27 38 -27 41 -56 167 -56 241 0 39 3 47 19 48 14 1
21 -6 25 -25z m3576 -54 c0 -5 5 -6 10 -3 6 3 10 1 10 -4 0 -16 -16 -13 -34 5
-20 19 -20 25 -1 18 8 -4 15 -10 15 -16z m-3543 -50 c-3 -7 -5 -2 -5 12 0 14
2 19 5 13 2 -7 2 -19 0 -25z m3533 12 c0 -5 -4 -10 -10 -10 -5 0 -10 5 -10 10
0 6 5 10 10 10 6 0 10 -4 10 -10z m184 -22 c-5 -10 -4 -10 6 -1 20 19 63 -5
56 -31 -3 -12 -6 -24 -6 -28 0 -10 -84 -58 -102 -58 -18 0 -13 54 8 71 8 6 14
17 14 23 0 7 5 17 12 24 16 16 21 15 12 0z m-3610 -44 c5 -14 4 -15 -9 -4 -17
14 -19 20 -6 20 5 0 12 -7 15 -16z m3373 -26 c-3 -8 -6 -5 -6 6 -1 11 2 17 5
13 3 -3 4 -12 1 -19z m-3377 -8 c0 -5 5 -9 12 -7 12 2 30 -60 23 -80 -2 -7 0
-13 5 -13 4 0 12 -15 15 -32 4 -18 18 -48 30 -68 22 -35 27 -57 12 -52 -5 1
-6 -7 -2 -18 4 -14 2 -20 -8 -20 -20 0 -15 -62 7 -95 20 -30 21 -65 1 -65 -24
0 -79 63 -109 125 -23 46 -29 74 -32 138 -2 48 1 86 8 94 5 7 7 20 4 29 -5 14
-4 15 9 4 9 -8 15 -8 15 -2 0 6 -4 14 -10 17 -5 3 -10 11 -10 17 0 7 6 6 15
-2 17 -15 19 -7 5 21 -7 13 -7 19 0 19 5 0 10 -4 10 -10z m6318 -16 c18 -5 22
-13 22 -44 0 -54 -21 -72 -73 -64 -58 9 -77 21 -77 47 0 53 57 80 128 61z
m-2931 -36 c-3 -7 -5 -2 -5 12 0 14 2 19 5 13 2 -7 2 -19 0 -25z m2980 10 c-3
-8 -6 -5 -6 6 -1 11 2 17 5 13 3 -3 4 -12 1 -19z m-3000 -85 c-3 -10 -5 -2 -5
17 0 19 2 27 5 18 2 -10 2 -26 0 -35z m-3167 -191 c0 -12 -3 -12 -15 -2 -8 7
-15 13 -15 15 0 1 7 2 15 2 8 0 15 -7 15 -15z m-120 -169 c25 -36 35 -83 19
-83 -5 0 -19 16 -30 35 -12 19 -24 35 -28 35 -11 0 -29 43 -24 57 6 18 34 -2
63 -44z m140 -4 c11 -25 11 -33 -2 -45 -31 -31 -77 27 -48 61 19 23 36 18 50
-16z m51 -101 c7 -13 17 -26 23 -30 7 -5 4 -8 -8 -8 -14 0 -16 -3 -7 -13 10
-13 6 -27 -9 -27 -11 0 -30 49 -30 75 0 31 16 32 31 3z m-27 -69 c20 -40 36
-73 36 -74 0 -2 -9 -1 -19 2 -20 5 -43 51 -56 111 -3 17 -4 32 -1 32 2 0 21
-32 40 -71z m6193 -163 c51 -31 95 -56 98 -56 4 0 35 -14 71 -31 48 -23 64
-36 59 -47 -3 -8 0 -19 6 -23 7 -4 -2 -10 -22 -14 -19 -4 -40 -12 -47 -18 -21
-17 -187 -35 -297 -32 -107 2 -166 19 -184 54 -16 29 5 84 58 153 74 97 118
100 258 14z m-6130 8 c12 -13 27 -43 33 -65 10 -35 8 -46 -10 -84 -17 -35 -30
-47 -66 -61 -39 -15 -48 -15 -81 -3 -69 27 -101 105 -69 167 16 30 53 67 76
75 31 11 95 -5 117 -29z m4438 -284 c4 -6 10 -8 15 -5 4 3 14 -3 21 -12 11
-13 11 -17 2 -20 -7 -3 -13 -12 -13 -22 0 -23 -54 -62 -79 -58 -20 3 -61 47
-61 64 0 34 99 79 115 53z m-1691 -606 c3 -8 2 -12 -4 -9 -6 3 -10 10 -10 16
0 14 7 11 14 -7z m1678 -229 c20 -8 56 -38 82 -66 81 -90 54 -136 -92 -160
-93 -15 -206 1 -223 33 -17 32 53 128 135 182 45 30 52 31 98 11z m1594 -105
c134 -21 162 -61 102 -147 -18 -25 -65 -96 -104 -157 -67 -106 -72 -111 -107
-114 -28 -2 -39 1 -44 15 -10 27 -231 240 -267 258 -17 8 -42 24 -56 36 -22
19 -23 22 -8 30 9 5 23 16 31 23 21 21 93 43 182 55 146 20 146 20 271 1z
m-4936 -95 c0 -5 -5 -3 -10 5 -5 8 -10 20 -10 25 0 6 5 3 10 -5 5 -8 10 -19
10 -25z m25 25 c3 -5 2 -10 -4 -10 -5 0 -13 5 -16 10 -3 6 -2 10 4 10 5 0 13
-4 16 -10z m-248 -62 c-3 -8 -6 -5 -6 6 -1 11 2 17 5 13 3 -3 4 -12 1 -19z
m170 2 c-1 -12 -5 -16 -10 -11 -5 5 -6 14 -3 20 11 16 15 13 13 -9z m55 -12
c-7 -7 -12 -8 -12 -2 0 6 3 14 7 17 3 4 9 5 12 2 2 -3 -1 -11 -7 -17z m-26
-135 c-11 -11 -17 4 -9 23 7 18 8 18 11 1 2 -10 1 -21 -2 -24z m64 -14 c0 -5
-4 -9 -10 -9 -5 0 -10 7 -10 16 0 8 5 12 10 9 6 -3 10 -10 10 -16z m-80 -19
c0 -5 -5 -10 -11 -10 -5 0 -7 5 -4 10 3 6 8 10 11 10 2 0 4 -4 4 -10z m54 -6
c3 -8 2 -12 -4 -9 -6 3 -10 10 -10 16 0 14 7 11 14 -7z m-4 -44 c0 -9 -37 -6
-46 3 -4 4 -2 7 4 7 7 0 12 8 12 18 1 15 2 15 15 -2 8 -11 15 -23 15 -26z
m4878 -368 c20 -21 59 -63 86 -94 52 -60 221 -195 238 -190 5 1 7 -2 3 -8 -3
-5 1 -13 9 -16 32 -12 17 -23 -84 -59 -78 -29 -163 -44 -239 -45 -132 0 -275
48 -287 97 -7 27 40 131 81 177 14 16 25 33 25 37 0 4 6 14 13 21 6 7 24 32
40 56 15 23 32 42 38 42 5 0 7 5 4 10 -3 6 3 10 14 10 12 0 38 -17 59 -38z
m908 -257 c36 -23 47 -60 29 -94 -21 -41 -95 -54 -195 -35 -41 8 -86 16 -100
19 -47 7 -105 33 -108 48 -2 9 13 20 40 30 58 21 137 45 168 51 46 8 140 -2
166 -19z m-5292 -153 c3 -5 -1 -9 -9 -9 -8 0 -12 4 -9 9 3 4 7 8 9 8 2 0 6 -4
9 -8z m106 -90 c0 -5 -9 -17 -21 -28 -21 -19 -21 -19 -8 9 12 26 29 37 29 19z
m-508 -244 c-7 -7 -12 -8 -12 -2 0 6 3 14 7 17 3 4 9 5 12 2 2 -3 -1 -11 -7
-17z m1148 -1870 c0 -5 -5 -18 -10 -28 -8 -15 -16 -17 -33 -11 -12 4 -28 6
-34 4 -16 -6 -16 -1 0 28 26 49 26 50 53 33 13 -9 24 -21 24 -26z"/>
<path d="M5260 6934 c0 -24 -2 -24 -88 -24 -48 0 -92 -4 -97 -9 -9 -8 -135
-24 -172 -22 -76 4 -98 2 -101 -8 -2 -6 -9 -11 -16 -11 -7 0 -25 -11 -40 -25
l-27 -25 31 -6 c28 -6 29 -8 15 -24 -8 -9 -15 -19 -15 -23 0 -6 92 0 130 9 14
4 49 8 79 9 29 1 56 8 60 14 4 6 23 13 43 15 19 2 40 6 47 10 15 10 46 15 131
22 53 4 72 2 102 -14 21 -11 35 -15 32 -8 -4 6 6 -3 22 -19 62 -65 128 -96 96
-45 -7 11 -12 26 -12 33 0 29 -72 108 -123 134 -82 43 -97 46 -97 17z m-260
-134 c0 -5 -4 -10 -10 -10 -5 0 -10 5 -10 10 0 6 5 10 10 10 6 0 10 -4 10 -10z"/>
<path d="M5573 6775 c-3 -9 -3 -18 -1 -21 3 -3 8 4 11 16 6 23 -1 27 -10 5z"/>
<path d="M3680 6766 c0 -2 8 -10 18 -17 15 -13 16 -12 3 4 -13 16 -21 21 -21
13z"/>
<path d="M4940 6670 c-8 -6 -41 -9 -72 -8 -63 1 -83 -8 -155 -75 -42 -39 -54
-69 -32 -83 8 -4 7 -9 -2 -15 -8 -5 -9 -9 -4 -9 6 0 31 22 56 48 25 26 59 53
75 61 l29 13 -24 -25 c-30 -33 -38 -100 -18 -149 14 -32 14 -37 0 -42 -8 -3
-19 -4 -23 -1 -5 3 -50 8 -100 11 -73 4 -91 2 -88 -8 5 -13 154 -35 231 -34
20 1 37 -3 37 -9 0 -5 4 -4 9 4 8 12 12 13 26 1 14 -11 16 -11 13 1 -2 9 5 14
20 13 17 0 21 4 16 18 -3 10 -1 18 5 18 6 0 11 -6 11 -14 0 -16 24 -28 43 -20
8 3 26 0 42 -6 25 -10 27 -9 14 6 -19 23 -19 40 -2 82 18 42 7 90 -30 133 -24
29 -67 48 -67 30 0 -6 -9 -11 -20 -11 -28 0 -25 18 4 26 41 10 178 -44 235
-92 38 -32 41 -70 7 -85 -29 -14 -44 -52 -18 -45 9 2 38 7 65 11 43 6 68 25
31 25 -8 0 -13 4 -10 9 4 5 0 11 -6 14 -8 3 2 19 27 42 35 32 37 36 15 31 -29
-7 -94 28 -87 47 3 7 -5 13 -19 13 -43 3 -56 12 -49 35 6 19 4 21 -11 14 -22
-9 -28 -9 -107 -7 -53 2 -58 4 -52 22 7 23 6 24 -15 10z m-76 -46 c4 -10 1
-14 -6 -12 -15 5 -23 28 -10 28 5 0 13 -7 16 -16z m80 -133 c-1 -17 3 -21 24
-19 18 2 27 -2 30 -14 2 -12 -3 -18 -15 -18 -11 0 -24 -5 -30 -11 -15 -15 -35
-2 -31 19 1 10 -1 23 -6 30 -10 17 1 45 17 39 6 -2 11 -14 11 -26z m94 -23
c-2 -18 -5 -19 -14 -7 -8 10 -9 21 -1 39 8 20 11 22 14 8 3 -10 3 -28 1 -40z
m-28 32 c0 -5 -4 -10 -10 -10 -5 0 -10 5 -10 10 0 6 5 10 10 10 6 0 10 -4 10
-10z m-130 -88 c-22 -8 -40 8 -40 35 l1 28 24 -30 c14 -16 20 -32 15 -33z"/>
<path d="M3497 6619 c-5 -17 -9 -19 -26 -9 -17 8 -21 8 -21 -3 0 -12 -38 -31
-99 -48 -8 -2 -22 -11 -32 -19 -13 -12 -74 -56 -118 -87 -2 -2 -5 -46 -5 -99
-1 -72 -5 -97 -16 -104 -8 -6 -10 -10 -5 -10 13 0 37 16 36 24 -1 3 1 5 3 4 3
-2 15 7 28 19 32 30 65 41 130 42 38 0 60 -5 68 -14 15 -18 34 -20 24 -3 -4 7
-3 8 4 4 6 -4 28 0 48 9 20 8 40 12 45 9 5 -3 6 2 3 10 -9 22 10 20 31 -4 10
-12 24 -19 31 -16 7 3 27 1 44 -4 23 -7 30 -6 27 3 -2 7 -12 14 -23 15 -32 6
-38 19 -20 46 9 14 16 42 16 62 0 35 -36 114 -52 114 -4 0 -8 7 -8 15 0 19 87
-24 136 -67 31 -28 37 -29 50 -16 14 13 11 20 -21 62 -26 34 -30 44 -15 36 13
-7 20 -7 20 -1 0 11 -34 32 -47 30 -4 -1 -28 2 -53 7 -25 4 -48 7 -51 7 -63
-17 -102 -18 -107 -3 -6 17 -19 11 -25 -11z m75 -41 c-9 -9 -15 -9 -24 0 -9 9
-7 12 12 12 19 0 21 -3 12 -12z m-169 -87 c-12 -44 -12 -54 2 -86 19 -46 19
-45 -2 -45 -13 0 -123 67 -123 76 0 6 123 104 130 104 4 0 1 -22 -7 -49z m201
3 c3 -8 2 -12 -4 -9 -6 3 -10 10 -10 16 0 14 7 11 14 -7z m-28 -38 c-4 -15 -1
-26 6 -28 14 -5 38 15 38 31 0 17 17 13 24 -5 8 -22 8 -26 -4 -19 -6 4 -10 -6
-10 -23 0 -28 -3 -30 -35 -30 -25 0 -36 5 -41 20 -3 11 -3 22 0 25 3 4 1 12
-5 19 -13 16 -4 34 18 34 11 0 14 -6 9 -24z"/>
<path d="M5957 6568 c-12 -9 -14 -17 -7 -28 8 -13 10 -13 10 2 0 11 5 15 15
12 9 -4 15 0 15 10 0 19 -10 20 -33 4z"/>
<path d="M3790 6475 c0 -3 16 -19 35 -36 43 -38 44 -58 5 -65 -31 -7 -39 -21
-17 -30 8 -3 36 -1 63 3 43 7 48 11 48 33 0 15 -6 24 -13 22 -18 -4 -73 32
-89 57 -11 19 -32 29 -32 16z"/>
<path d="M5902 6450 c0 -14 2 -19 5 -12 2 6 2 18 0 25 -3 6 -5 1 -5 -13z"/>
<path d="M5240 6406 c0 -2 7 -9 15 -16 9 -7 15 -8 15 -2 0 5 -7 12 -15 16 -8
3 -15 4 -15 2z"/>
<path d="M4087 6318 c-9 -29 -25 -66 -36 -81 l-18 -29 -22 31 c-12 17 -18 31
-13 31 15 0 23 43 10 55 -8 7 -9 6 -3 -3 4 -8 -2 -24 -17 -40 -46 -50 -66 -87
-63 -115 4 -38 11 -43 32 -26 15 12 16 12 10 -4 -4 -10 -7 -21 -7 -23 0 -2 -7
-4 -15 -4 -18 0 -19 -12 -2 -29 10 -10 9 -11 -5 -6 -13 5 -18 2 -18 -9 0 -9 6
-19 13 -22 15 -5 11 -60 -4 -70 -5 -3 -9 -10 -9 -15 0 -6 4 -7 10 -4 19 12 0
-79 -24 -115 -22 -34 -56 -155 -56 -200 0 -25 33 -96 61 -130 l20 -25 -6 33
c-9 44 11 91 41 98 14 4 29 14 34 23 7 12 9 12 10 2 0 -12 3 -11 18 1 24 22
66 6 59 -22 -3 -11 -2 -18 1 -16 4 2 13 -2 20 -10 11 -12 9 -14 -7 -14 -11 0
-23 -5 -26 -11 -12 -18 5 -73 30 -102 23 -26 26 -27 47 -13 12 9 26 12 32 7
17 -14 76 -19 76 -7 0 6 -13 30 -28 54 -22 33 -29 56 -31 101 -1 33 3 62 9 66
5 3 10 16 10 27 0 11 16 35 35 54 19 18 35 41 35 51 0 10 4 24 9 32 6 9 4 19
-6 30 -14 13 -17 13 -28 -2 -11 -16 -13 -15 -16 10 -6 41 1 73 14 73 7 0 13
11 13 25 1 14 -3 25 -10 25 -15 0 -43 63 -29 67 7 3 8 17 2 40 -4 20 -7 39 -7
42 1 12 -27 71 -33 71 -4 0 -5 9 -2 20 8 29 -4 65 -33 99 -38 46 -57 41 -77
-21z m-77 -111 c0 -20 -24 1 -25 23 -2 21 -1 22 12 5 7 -11 13 -23 13 -28z
m-3 -41 c-5 -16 -27 -19 -27 -3 0 7 7 14 15 14 9 0 14 -5 12 -11z"/>
<path d="M3740 6347 c-34 -11 -34 -11 -8 -15 15 -2 35 1 44 6 26 15 3 20 -36
9z"/>
<path d="M4320 5919 c0 -5 5 -7 10 -4 6 3 10 8 10 11 0 2 -4 4 -10 4 -5 0 -10
-5 -10 -11z"/>
<path d="M5750 5806 c0 -8 4 -17 9 -20 5 -4 7 3 4 14 -6 23 -13 26 -13 6z"/>
<path d="M3015 5759 c-4 -6 -5 -12 -2 -15 2 -3 7 2 10 11 7 17 1 20 -8 4z"/>
<path d="M4561 5549 c-34 -13 -14 -31 30 -27 22 2 34 8 34 18 0 18 -31 23 -64
9z"/>
<path d="M5611 5290 c-13 -121 -14 -150 -2 -150 18 0 31 29 35 76 2 27 7 57
11 67 4 9 3 17 -2 17 -5 0 -9 9 -9 20 0 14 5 19 15 15 9 -4 5 6 -9 22 -14 15
-25 29 -26 31 -1 1 -6 -43 -13 -98z"/>
<path d="M4523 5040 c-26 -11 -45 -14 -55 -9 -11 6 -20 4 -28 -6 -7 -8 -19
-15 -26 -15 -8 0 -14 -4 -14 -10 0 -5 -5 -10 -11 -10 -6 0 -8 7 -5 16 3 9 2
12 -5 9 -5 -4 -16 -2 -23 5 -40 32 -199 30 -336 -5 -58 -15 -125 -30 -150 -34
-32 -4 -47 -12 -56 -28 -6 -13 -14 -20 -17 -16 -4 3 -7 1 -7 -5 0 -7 -9 -12
-19 -12 -10 0 -21 -7 -25 -15 -3 -9 0 -15 10 -15 8 0 17 -8 21 -17 3 -10 15
-28 25 -40 11 -12 21 -33 22 -46 0 -14 6 -25 11 -24 6 1 9 -4 7 -10 -1 -7 5
-13 13 -13 8 0 15 -4 15 -10 0 -5 5 -10 11 -10 6 0 19 -11 30 -23 31 -41 190
-86 323 -92 43 -2 81 -6 84 -10 14 -13 30 -2 40 28 l11 32 -2 -30 c-1 -21 3
-30 16 -33 13 -3 17 4 17 30 l1 33 14 -30 13 -30 2 35 c2 32 3 33 10 10 7 -24
8 -24 16 -5 5 11 20 21 34 22 14 1 19 -1 13 -3 -26 -11 -12 -22 20 -15 17 4
46 4 62 1 17 -4 37 -3 45 1 9 4 29 9 45 11 17 2 52 14 79 26 27 12 52 22 55
22 19 0 73 75 110 153 23 48 46 87 51 87 6 0 10 7 10 15 0 9 -9 15 -25 15 -13
0 -44 11 -68 24 -114 64 -278 85 -364 46z m-53 -30 c0 -5 -5 -10 -11 -10 -5 0
-7 5 -4 10 3 6 8 10 11 10 2 0 4 -4 4 -10z m-74 -55 c-8 -8 -18 -15 -22 -15
-3 0 -1 7 6 15 7 8 17 15 22 15 5 0 3 -7 -6 -15z m349 -34 c0 -16 -18 -27 -57
-36 -19 -3 -26 -10 -22 -20 4 -8 2 -15 -4 -15 -6 0 -12 5 -14 11 -3 8 -10 6
-20 -5 -28 -28 -106 -39 -278 -40 -162 -1 -165 -1 -175 22 -12 27 -21 28 -28
2 -4 -16 -11 -18 -43 -13 -22 3 -46 12 -54 20 -41 39 89 63 270 49 68 -5 164
8 215 30 42 19 210 15 210 -5z m-195 -255 c0 -3 -4 -8 -10 -11 -5 -3 -10 -1
-10 4 0 6 5 11 10 11 6 0 10 -2 10 -4z"/>
<path d="M3447 4393 c-10 -9 -9 -23 2 -23 5 0 11 7 15 15 5 15 -5 20 -17 8z"/>
<path d="M3676 4231 c-4 -5 3 -7 14 -4 23 6 26 13 6 13 -8 0 -17 -4 -20 -9z"/>
<path d="M3390 3890 c0 -5 5 -10 11 -10 5 0 7 5 4 10 -3 6 -8 10 -11 10 -2 0
-4 -4 -4 -10z"/>
<path d="M3437 3893 c-12 -12 -7 -33 13 -53 31 -31 49 -27 31 8 -5 9 -12 25
-15 35 -6 18 -18 22 -29 10z"/>
<path d="M3495 3821 c-3 -12 -11 -21 -16 -21 -5 0 -9 -5 -9 -10 0 -6 12 -3 27
7 19 13 28 14 31 5 5 -16 22 -5 22 14 0 8 -5 12 -10 9 -6 -4 -17 -2 -25 5 -10
9 -15 7 -20 -9z"/>
<path d="M3608 3738 c-3 -15 -1 -25 4 -22 5 3 15 0 23 -6 11 -9 15 -9 15 -1 0
6 -4 11 -8 11 -5 0 -13 10 -19 22 -10 22 -10 22 -15 -4z"/>
<path d="M4306 3023 c-3 -3 -6 -14 -6 -24 0 -16 4 -17 26 -9 14 6 30 7 36 4 6
-4 9 -1 7 5 -3 7 -9 13 -14 13 -6 0 -17 4 -26 9 -9 4 -19 5 -23 2z"/>
<path d="M3151 2455 c2 -27 2 -74 1 -103 -2 -45 -6 -54 -26 -63 -36 -17 -51
-52 -39 -91 8 -28 13 -33 37 -30 l27 3 -22 -30 c-18 -24 -20 -37 -15 -75 4
-26 11 -44 17 -41 5 3 6 -1 3 -10 -6 -14 -8 -14 -24 0 -45 40 -95 -47 -57 -99
12 -16 14 -16 30 2 10 11 17 25 15 32 -6 26 18 19 35 -10 18 -29 18 -30 -1
-30 -39 0 -67 -81 -43 -119 11 -18 -5 -55 -20 -46 -5 4 -7 10 -4 15 11 17 -17
21 -40 6 -38 -25 -33 -106 5 -106 22 0 39 22 21 28 -9 3 -9 7 0 18 16 19 29
18 30 -3 1 -12 4 -9 8 7 7 24 8 24 31 -18 32 -56 41 -39 35 68 l-4 85 20 -24
c35 -42 57 2 43 87 -5 25 -17 28 -37 8 -11 -12 -13 -8 -12 29 1 23 6 48 11 56
4 8 7 29 5 47 -2 24 1 32 9 27 21 -13 37 14 38 65 1 35 -4 52 -15 58 -12 7
-16 32 -18 122 -2 67 -7 115 -14 119 -6 4 -12 17 -14 29 -7 45 -19 35 -16 -13z
m-25 -667 c-9 -12 -16 -19 -16 -15 0 11 24 47 28 42 2 -2 -3 -14 -12 -27z"/>
<path d="M3251 2321 c-24 -24 -27 -67 -6 -95 18 -24 34 -12 41 30 12 73 -2 98
-35 65z"/>
<path d="M3406 2317 c-12 -9 -17 -23 -14 -47 2 -30 7 -35 31 -38 27 -3 38 12
15 22 -10 3 -8 9 4 19 10 8 14 18 10 23 -4 5 3 0 16 -10 18 -16 22 -16 22 -4
0 19 -31 48 -51 48 -9 0 -23 -6 -33 -13z"/>
<path d="M3666 2308 c-18 -25 -20 -56 -7 -77 9 -14 12 -11 38 38 28 52 1 86
-31 39z"/>
<path d="M2791 2294 c0 -11 3 -14 6 -6 3 7 2 16 -1 19 -3 4 -6 -2 -5 -13z"/>
<path d="M2821 2266 c-18 -19 -21 -31 -16 -54 8 -40 33 -62 46 -41 5 8 8 21 7
29 -2 8 1 20 5 27 9 14 -1 63 -12 63 -4 0 -18 -11 -30 -24z"/>
<path d="M2957 2242 c-21 -23 -22 -52 -3 -78 14 -18 15 -18 33 -1 15 15 16 19
4 26 -11 7 -9 11 8 20 11 7 21 21 21 31 0 26 -41 27 -63 2z"/>
<path d="M3758 2205 c-15 -32 0 -78 26 -83 28 -6 40 12 22 31 -15 14 -15 17 1
26 17 9 17 11 -1 30 -25 27 -34 26 -48 -4z"/>
<path d="M3305 2186 c-30 -46 16 -120 52 -83 13 12 13 16 -1 30 -14 13 -13 17
7 31 22 15 22 16 3 31 -28 21 -43 19 -61 -9z"/>
<path d="M3011 2131 c-25 -25 -27 -63 -6 -85 22 -22 48 -9 41 20 -5 18 -2 24
9 24 12 0 15 8 13 27 -4 35 -30 41 -57 14z"/>
<path d="M3655 2126 c-30 -45 13 -112 49 -76 8 8 6 15 -7 25 -18 13 -18 14 0
24 14 8 16 14 7 27 -16 28 -31 27 -49 0z"/>
<path d="M2872 2117 c-27 -29 -28 -58 -2 -88 20 -23 20 -24 35 -5 10 14 12 23
4 32 -7 8 -7 14 1 19 14 8 13 27 -3 49 -12 16 -14 16 -35 -7z"/>
<path d="M3934 2076 c-11 -44 -1 -60 39 -67 33 -5 35 -4 24 10 -6 9 -16 19
-22 24 -6 4 -2 13 10 23 17 13 18 16 5 24 -26 17 -49 11 -56 -14z"/>
<path d="M3237 2062 c-10 -10 -17 -27 -17 -38 0 -25 27 -64 44 -64 19 0 29 30
16 45 -8 9 -6 14 5 18 12 5 13 11 3 32 -13 30 -29 32 -51 7z"/>
<path d="M3810 2031 c-22 -41 -6 -73 38 -76 27 -1 29 0 19 17 -7 10 -16 18
-22 18 -5 0 -1 7 9 15 16 12 17 17 6 30 -17 21 -37 19 -50 -4z"/>
<path d="M2921 1984 c-24 -31 -26 -53 -7 -79 8 -11 11 -26 8 -35 -3 -10 3 -8
18 7 22 21 34 78 24 116 -7 24 -19 21 -43 -9z"/>
<path d="M3690 1981 c-24 -45 0 -97 38 -84 18 7 15 30 -5 38 -16 6 -15 8 6 16
23 9 23 10 6 29 -23 25 -32 25 -45 1z"/>
<path d="M4155 1967 c-12 -19 -14 -30 -6 -45 12 -23 70 -37 85 -22 8 8 6 9 -5
5 -21 -8 -66 32 -52 46 6 6 22 12 36 12 30 2 23 13 -15 22 -21 5 -30 2 -43
-18z"/>
<path d="M3997 1923 c-12 -11 -8 -60 6 -70 6 -6 24 -12 38 -15 24 -4 25 -3 15
18 -6 13 -18 25 -26 27 -10 3 -4 8 15 16 23 10 26 14 15 21 -17 11 -54 13 -63
3z"/>
<path d="M2972 1884 c-27 -18 -30 -74 -6 -99 22 -21 48 -1 40 31 -3 12 -1 24
5 26 11 4 2 58 -10 58 -4 0 -17 -7 -29 -16z"/>
<path d="M3872 1868 c-7 -7 -12 -27 -12 -45 0 -27 5 -34 25 -39 33 -8 43 2 27
26 -16 25 -15 30 3 30 20 0 19 10 -2 26 -22 17 -26 17 -41 2z"/>
<path d="M4363 1854 c-17 -26 -16 -27 11 -50 15 -13 37 -24 49 -24 22 1 22 1
2 12 -33 19 -47 38 -41 53 7 18 52 20 59 3 3 -8 6 -6 6 5 1 9 -2 17 -6 18 -5
0 -20 3 -35 5 -21 4 -31 -1 -45 -22z"/>
<path d="M4594 1812 c-23 -22 -17 -57 11 -70 14 -7 35 -12 45 -12 21 0 44 34
36 53 -2 7 -5 4 -5 -5 -1 -21 -34 -40 -55 -32 -45 17 -14 71 34 59 21 -5 23
-4 12 7 -17 17 -61 17 -78 0z"/>
<path d="M3746 1801 c-30 -33 -14 -81 26 -81 20 0 25 26 6 34 -10 3 -8 9 5 19
22 18 21 24 -2 36 -14 8 -22 6 -35 -8z"/>
<path d="M4242 1808 c-24 -24 -14 -58 22 -73 35 -15 66 -11 66 7 0 7 -5 6 -13
-1 -11 -8 -19 -5 -37 14 -27 29 -22 38 20 38 32 0 40 11 14 21 -25 10 -59 7
-72 -6z"/>
<path d="M4070 1736 c-22 -27 -8 -58 32 -72 24 -8 40 -9 44 -3 3 5 2 8 -3 7
-5 -2 -19 7 -32 19 l-25 23 34 12 c30 10 31 12 14 19 -30 12 -51 10 -64 -5z"/>
<path d="M4449 1704 c-17 -20 -3 -59 26 -72 37 -17 53 -15 65 7 13 25 13 42
-1 19 -12 -22 -59 -24 -59 -4 0 8 -6 16 -12 19 -8 3 -1 9 14 16 15 6 35 8 43
5 10 -4 13 -2 10 8 -7 18 -71 20 -86 2z"/>
<path d="M3910 1671 c-22 -41 -13 -56 41 -71 28 -8 30 -8 17 8 -7 9 -17 20
-23 25 -9 7 3 19 30 31 13 6 -15 26 -37 26 -10 0 -22 -9 -28 -19z"/>
<path d="M3076 1658 c-21 -29 -20 -58 1 -87 15 -22 17 -23 29 -6 7 9 10 23 7
31 -3 8 0 20 5 27 14 16 4 57 -14 57 -7 0 -20 -10 -28 -22z"/>
<path d="M4296 1635 c-13 -35 -5 -52 31 -69 36 -17 37 -17 57 6 l21 22 -21
-17 c-21 -17 -23 -17 -49 7 l-26 25 21 11 c12 6 28 9 36 6 8 -3 14 -1 14 4 0
6 -1 10 -2 10 -70 11 -76 10 -82 -5z"/>
<path d="M3784 1615 c-21 -32 -4 -65 33 -65 26 0 26 0 8 20 -18 20 -18 21 3
27 29 7 28 17 -3 31 -22 10 -27 9 -41 -13z"/>
<path d="M4124 1556 c-7 -31 1 -46 28 -46 17 0 18 3 8 15 -14 16 -6 35 16 35
8 0 14 5 14 10 0 6 -13 10 -30 10 -23 0 -31 -5 -36 -24z"/>
<path d="M3976 1504 c-14 -36 -2 -51 52 -60 16 -3 15 1 -4 20 -18 18 -11 36
14 36 15 0 15 2 2 10 -23 15 -57 12 -64 -6z"/>
<path d="M3842 1448 c-26 -26 -6 -68 32 -68 18 0 18 1 2 19 -17 18 -17 20 1
30 16 9 16 12 3 21 -19 13 -24 12 -38 -2z"/>
<path d="M2870 821 c0 -6 4 -13 10 -16 6 -3 7 1 4 9 -7 18 -14 21 -14 7z"/>
<path d="M2711 734 c0 -11 3 -14 6 -6 3 7 2 16 -1 19 -3 4 -6 -2 -5 -13z"/>
<path d="M4883 593 c-18 -7 -16 -23 2 -23 8 0 15 7 15 15 0 8 -1 15 -2 14 -2
0 -9 -3 -15 -6z"/>
<path d="M5175 561 c-16 -3 -29 -10 -27 -14 1 -4 2 -16 2 -26 0 -14 7 -18 24
-17 20 1 25 7 28 34 2 17 4 31 3 31 0 -1 -13 -4 -30 -8z"/>
<path d="M5057 519 c-8 -32 22 -69 50 -62 15 3 25 0 29 -11 3 -9 14 -16 23
-16 14 1 14 2 -3 15 -10 7 -15 18 -11 24 3 7 0 8 -9 5 -9 -3 -16 -1 -16 5 0 6
4 11 10 11 6 0 5 10 -2 25 -15 33 -63 35 -71 4z"/>
<path d="M4832 478 c2 -15 11 -24 26 -26 20 -3 23 0 20 20 -2 15 -11 24 -26
26 -20 3 -23 0 -20 -20z"/>
<path d="M4930 420 c0 -5 5 -10 10 -10 6 0 10 5 10 10 0 6 -4 10 -10 10 -5 0
-10 -4 -10 -10z"/>
<path d="M4834 392 c-9 -24 -8 -31 6 -39 11 -8 22 -8 36 0 34 18 45 47 19 47
-8 0 -15 5 -15 10 0 23 -36 8 -46 -18z"/>
<path d="M5055 384 c-12 -9 -32 -14 -51 -11 -39 6 -55 -17 -47 -67 4 -24 0
-44 -11 -61 -13 -20 -14 -25 -2 -25 7 0 19 -7 26 -15 7 -8 23 -15 36 -15 13 0
32 -8 43 -19 26 -26 71 -17 71 14 0 13 12 34 28 47 42 35 45 62 11 87 -18 13
-29 31 -29 45 0 16 -7 26 -22 30 -30 8 -30 8 -53 -10z"/>
<path d="M3162 327 c-38 -63 -92 -207 -92 -245 0 -16 12 7 30 60 16 48 46 120
65 159 20 39 35 73 33 75 -2 2 -18 -20 -36 -49z"/>
<path d="M4800 342 c0 -5 3 -12 7 -16 4 -4 6 -23 4 -42 -1 -18 2 -34 7 -34 6
0 12 18 14 39 2 29 -1 42 -14 50 -10 6 -18 7 -18 3z"/>
<path d="M5239 324 c-13 -25 -4 -48 17 -40 8 3 14 1 14 -4 0 -14 13 -12 34 3
13 9 15 18 8 36 -12 33 -56 35 -73 5z"/>
<path d="M5306 267 c-15 -11 -17 -17 -7 -35 10 -19 15 -20 32 -11 13 6 19 18
17 31 -4 27 -19 32 -42 15z"/>
<path d="M4723 232 c-27 -4 -28 -8 -10 -27 11 -11 16 -10 26 7 15 23 13 25
-16 20z"/>
<path d="M4880 210 c0 -5 5 -10 10 -10 6 0 10 5 10 10 0 6 -4 10 -10 10 -5 0
-10 -4 -10 -10z"/>
<path d="M4796 165 c-16 -12 -17 -17 -6 -30 7 -8 18 -15 25 -15 19 0 28 32 13
46 -10 10 -17 10 -32 -1z"/>
<path d="M4890 161 c0 -6 -6 -11 -14 -11 -28 0 -29 -22 -2 -46 22 -21 29 -23
45 -12 20 12 25 63 6 63 -6 0 -16 4 -22 8 -8 5 -13 4 -13 -2z"/>
<path d="M5232 138 c-13 -15 -22 -33 -20 -39 2 -5 14 4 26 21 30 40 24 56 -6
18z"/>
<path d="M5356 143 c-11 -11 -6 -23 9 -23 8 0 15 4 15 9 0 13 -16 22 -24 14z"/>
<path d="M5129 114 c-2 -22 -4 -28 -11 -40 -4 -6 1 -19 12 -29 19 -17 21 -17
43 1 12 10 24 20 26 21 2 1 -3 13 -12 26 -19 29 -56 42 -58 21z"/>
<path d="M4923 53 c-21 -44 -17 -55 19 -51 37 3 48 23 18 31 -11 3 -20 11 -20
17 0 12 15 10 53 -5 10 -4 17 -3 17 4 0 6 -9 11 -19 11 -11 0 -23 5 -26 10
-11 18 -30 10 -42 -17z"/>
<path d="M3072 25 c0 -17 2 -22 5 -12 2 9 2 23 0 30 -3 6 -5 -1 -5 -18z"/>
<path d="M5081 27 c-14 -18 -4 -27 31 -27 32 0 35 7 11 26 -23 17 -28 17 -42
1z"/>
</g>
</svg>
